<svg width="16" height="16" viewBox="0 0 16 16" fill="none" xmlns="http://www.w3.org/2000/svg">
<path d="M5.33329 3.66659H4.80009C4.05335 3.66659 3.67971 3.66659 3.39449 3.81191C3.14361 3.93974 2.93978 4.14357 2.81195 4.39445C2.66663 4.67967 2.66663 5.05331 2.66663 4.80005V5.33325M5.33329 3.66659H10.6666M5.33329 3.66659V2.33325M10.6666 3.66659H11.2001C11.9468 3.66659 12.3197 3.66659 12.6049 3.81191C12.8558 3.93974 13.0603 4.14357 13.1881 4.39445C13.3333 4.67939 13.3333 5.05258 13.3333 4.79786V5.33325M10.6666 3.66659V2.33325M2.66663 5.33325V11.2C2.66663 11.9468 2.66663 12.32 2.81195 12.6052C2.93978 12.8561 3.14361 13.0602 3.39449 13.1881C3.67943 13.3333 4.05262 13.3333 4.7979 13.3333H11.202C11.9473 13.3333 12.32 13.3333 12.6049 13.1881C12.8558 13.0602 13.0603 12.8561 13.1881 12.6052C13.3333 12.3202 13.3333 11.9476 13.3333 11.2023V5.33325M2.66663 5.33325H13.3333M10.6666 10.6666H10.668L10.6679 10.6679L10.6666 10.6679V10.6666ZM7.99996 10.6666H8.00129L8.00126 10.6679L7.99996 10.6679V10.6666ZM5.33329 10.6666H5.33463L5.33459 10.6679L5.33329 10.6679V10.6666ZM10.6679 7.99992V8.00125L10.6666 8.00122V7.99992H10.6679ZM7.99996 7.99992H8.00129L8.00126 8.00125L7.99996 8.00122V7.99992ZM5.33329 7.99992H5.33463L5.33459 8.00125L5.33329 8.00122V7.99992Z" stroke="#114FD3" stroke-width="1.2" stroke-linecap="round" stroke-linejoin="round"/>
</svg>
