<svg width="16" height="16" viewBox="0 0 16 16" fill="none" xmlns="http://www.w3.org/2000/svg">
<path d="M6 13.3333C6 13.7015 6.29848 14 6.66667 14H9.33333C9.70152 14 10 13.7015 10 13.3333V10L13.23 10C13.5982 10 14 9.70152 14 9.33333V6.66667C14 6.29848 13.5982 6 13.23 6H10L10 2.66667C10 2.29848 9.70152 2 9.33333 2H6.66667C6.29848 2 6 2.29848 6 2.66667V6H2.77C2.40181 6 2 6.29848 2 6.66667V9.33333C2 9.70152 2.40181 10 2.77 10H6V13.3333Z" stroke="#114FD3" stroke-width="1.2" stroke-linecap="round" stroke-linejoin="round"/>
</svg>
