<svg width="60" height="61" viewBox="0 0 60 61" fill="none" xmlns="http://www.w3.org/2000/svg">
<path fill-rule="evenodd" clip-rule="evenodd" d="M41.0815 20.9583C40.1434 20.1358 38.7941 20.1546 38.02 20.3935C38.5272 19.7708 39.7082 19.2602 40.0564 19.1982C40.3214 19.2976 41.0815 20.0788 41.0815 20.9583ZM44.0769 17.5524C43.46 14.252 35.7899 16.4388 31.9273 15.0369C31.8532 15.999 33.1164 17.5406 34.3246 18.1112C32.2593 19.9036 30.405 23.515 30.0309 27.9271C29.6579 23.515 27.8036 19.9036 25.7383 18.1112C26.9465 17.5406 28.2107 15.999 28.1357 15.0369C24.273 16.4388 16.6028 14.252 15.9848 17.5524C15.8548 18.2508 16.1908 19.3153 16.5539 19.6213C16.6188 19.3999 16.9579 18.6759 18.0271 18.5135C23.431 17.697 27.9426 26.0255 23.8701 29.3929C23.8081 29.444 23.8429 29.5386 23.927 29.5386H36.1367C36.2198 29.5386 36.2548 29.444 36.1938 29.3929C32.1201 26.0255 36.6319 17.697 42.0356 18.5135C43.1058 18.6759 43.4438 19.3999 43.5089 19.6212C43.8719 19.3153 44.208 18.251 44.0769 17.5524ZM45.3912 9.97749C45.2942 9.66569 48.4627 9.65789 48.4627 11.641C48.4627 12.9702 46.5675 13.5997 46.5675 14.9789C46.5675 15.6213 47.2585 16.0926 47.4706 16.0926C46.9825 13.8781 49.0009 15.0369 49.5459 15.4511C48.4628 12.4732 50.9012 12.492 50.6612 11.1265C50.4941 10.1723 48.3748 10.4606 47.6077 9.97749C46.2465 9.12068 44.6363 5.78669 43.5751 9.12068C45.5534 10.9574 44.4023 13.6607 41.8909 13.6607C41.8909 13.6607 41.8768 14.0571 41.8998 14.0886C44.8953 13.9419 45.9394 11.7405 45.3912 9.97749ZM10.4439 15.4511C10.9891 15.0369 13.0073 13.8781 12.5204 16.0926C12.7313 16.0926 13.4224 15.6213 13.4224 14.9789C13.4224 13.5997 11.5271 12.9702 11.5271 11.641C11.5271 9.65779 14.6957 9.66569 14.5985 9.97749C14.0515 11.7404 15.0958 13.942 18.0911 14.0886C18.1131 14.0571 18.0991 13.6607 18.0991 13.6607C15.5887 13.6607 14.4375 10.9572 16.4149 9.12068C15.3537 5.78669 13.7434 9.12068 12.3823 9.97749C11.6153 10.4606 9.49586 10.1723 9.32882 11.1265C9.08968 12.492 11.5271 12.4733 10.4439 15.4511ZM18.9492 20.9582C19.8883 20.1357 21.2376 20.1545 22.0108 20.3934C21.5057 19.7707 20.3226 19.2601 19.9754 19.1981C19.7104 19.2975 18.9492 20.0787 18.9492 20.9582ZM31.4561 2.49594L29.9949 0.714355L28.5338 2.49594L29.995 4.37095L31.4561 2.49594ZM39.7974 7.88307L38.7582 6.61689L37.7201 7.88307L38.7582 9.12058L39.7974 7.88307ZM48.2257 44.4806L46.9085 43.0866L45.5913 44.4806L46.9085 45.7034L48.2257 44.4806ZM22.2707 7.88288L21.2315 6.61671L20.1933 7.88288L21.2315 9.12049L22.2707 7.88288ZM19.2942 14.0884H23.1698C26.4283 14.0884 27.8946 12.0884 28.3376 10.354H31.6531C32.0963 12.0885 33.5613 14.0885 36.821 14.0885H40.6966C40.6966 14.0885 41.3745 13.1687 41.5445 12.7133C42.1567 11.0743 41.3745 10.3099 40.2334 10.3099L38.7581 11.6468L37.2829 10.3099C36.1417 10.3099 35.3597 11.0743 35.9718 12.7133C36.0498 12.9229 36.2369 13.2306 36.4138 13.5012C35.0386 13.3122 33.2833 12.3709 32.8982 10.354C32.8982 10.354 33.9143 8.73979 34.1694 8.08658C35.0857 5.73752 33.9154 4.77722 32.2042 4.77722L29.9948 7.37444L27.7856 4.77722C26.0743 4.77722 24.9041 5.73743 25.8213 8.08658C26.0755 8.73988 27.0926 10.3541 27.0926 10.3541C26.7065 12.371 24.9512 13.3123 23.576 13.5013C23.7541 13.2307 23.9401 12.9229 24.0181 12.7134C24.6291 11.0744 23.8491 10.31 22.7068 10.31L21.2317 11.6469L19.7565 10.31C18.6144 10.31 17.8342 11.0744 18.4454 12.7134C18.6154 13.1688 19.2942 14.0884 19.2942 14.0884ZM59.3633 26.102C58.6151 26.4809 54.2265 28.5368 48.6046 27.7764C48.6629 27.5082 48.7122 27.2382 48.7527 26.9668C52.4943 26.5191 55.5357 25.8846 57.474 24.8064C59.6834 23.5767 60.6495 20.6413 59.5343 18.4573C59.5054 18.4022 59.4254 18.3925 59.3854 18.4385C58.7744 19.142 54.9317 23.322 48.8778 24.6215C48.8623 24.3079 48.8336 23.9951 48.7918 23.684C51.7321 22.0164 54.6027 20.0951 55.9699 18.3382C58.0363 15.682 57.8461 12.294 55.8799 10.5665C55.8595 10.549 55.8326 10.5411 55.8059 10.5449C55.7793 10.5487 55.7556 10.5637 55.7408 10.5862C55.1188 11.6122 49.296 21.0238 42.903 25.0867C42.825 25.1366 42.7463 25.1855 42.667 25.2333C42.4839 25.3445 42.464 25.5825 42.62 25.7242C43.357 26.3921 43.8151 27.3218 43.8151 28.3538C43.8151 30.1481 42.4319 31.6404 40.6036 31.9641C39.6744 32.1441 38.3332 32.0919 37.045 31.6661C36.987 31.6473 36.927 31.6856 36.927 31.7437V37.427C36.927 37.5183 37.0661 37.541 37.099 37.4533C37.8821 35.3787 40.2264 34.9379 41.2517 34.9379C41.6207 37.1553 42.2798 38.9921 43.1359 39.9807C44.5299 41.5871 46.8064 41.5646 47.7936 40.4539C47.8099 40.4355 47.8169 40.4107 47.8126 40.3865C47.8083 40.3623 47.7931 40.3414 47.7715 40.3298C47.1915 39.9965 43.873 37.9591 43.2088 34.6202C43.471 34.5297 43.7269 34.4273 43.972 34.3063C45.0432 36.0791 46.6023 37.658 47.8575 38.261C49.9659 39.2725 51.8961 38.7805 52.7523 37.3C52.7833 37.2478 52.7453 37.1829 52.6823 37.177C51.3781 37.0727 47.3755 35.9256 45.6712 33.1308C45.8663 32.9516 46.0573 32.7648 46.2354 32.566C48.0185 33.9236 50.5401 35.1238 52.3454 35.3687C54.4575 35.656 56.851 34.9821 56.9091 32.5257C56.91 32.4765 56.866 32.4361 56.8141 32.4392C56.0629 32.4844 51.0911 32.7008 47.5485 30.6673C47.6716 30.4334 47.7864 30.1952 47.8926 29.9531C47.8926 29.9531 53.2455 31.2184 55.7818 30.7991C58.3022 30.3831 59.7785 28.5041 59.4934 26.1668C59.4854 26.1085 59.4174 26.0745 59.3633 26.102ZM12.0971 29.9534C12.2037 30.1955 12.3187 30.4337 12.4421 30.6676C8.90065 32.7001 3.93087 32.4856 3.1768 32.4395C3.12379 32.4364 3.0798 32.4787 3.08074 32.5269C3.13996 34.9824 5.53225 35.6562 7.64443 35.369C9.44886 35.1241 11.9713 33.9239 13.7544 32.5663C13.9335 32.765 14.1236 32.9519 14.3184 33.131C12.6133 35.9256 8.61169 37.0728 7.30744 37.1771C7.24446 37.1829 7.20743 37.2479 7.23751 37.3001C8.09366 38.7806 10.0239 39.2725 12.1333 38.2611C13.3875 37.6581 14.9467 36.0792 16.0179 34.3065C16.2639 34.4274 16.5199 34.5298 16.7809 34.6203C16.1168 37.9592 12.7984 39.9966 12.2182 40.3299C12.1968 40.3417 12.1818 40.3626 12.1776 40.3867C12.1733 40.4108 12.1801 40.4355 12.1962 40.454C13.1834 41.5647 15.4608 41.5872 16.8548 39.9808C17.7112 38.9921 18.3692 37.1554 18.7382 34.938C19.7643 34.938 22.1076 35.3789 22.8908 37.4535C22.9248 37.5411 23.0637 37.5183 23.0637 37.427V31.7437C23.0637 31.6857 23.0028 31.6474 22.9448 31.6661C21.6566 32.0919 20.3154 32.1442 19.3873 31.9641C17.558 31.6405 16.1748 30.1482 16.1748 28.3538C16.1748 27.3217 16.6338 26.3911 17.3699 25.7231C17.5269 25.5824 17.506 25.3443 17.3239 25.2332C17.2439 25.1853 17.1646 25.1364 17.0859 25.0866C10.6969 21.0258 4.87698 11.6211 4.24991 10.588C4.22077 10.5398 4.15083 10.53 4.10778 10.5673C2.1445 12.2958 1.95349 15.6828 4.01979 18.338C5.38702 20.0949 8.25731 22.0162 11.1969 23.6838C11.1554 23.9949 11.1271 24.3077 11.1119 24.6212C5.06301 23.3227 1.22339 19.1494 0.606281 18.4412C0.565297 18.393 0.483141 18.4029 0.455223 18.458C-0.657737 20.6429 0.308301 23.5765 2.5157 24.8062C4.45398 25.8843 7.49544 26.5188 11.237 26.9665C11.2774 27.2379 11.3268 27.5079 11.385 27.7761C5.76913 28.5356 1.38244 26.4845 0.628371 26.1027C0.572347 26.0742 0.504291 26.1097 0.497335 26.1687C0.213455 28.5061 1.6885 30.3831 4.20892 30.7991C6.74429 31.2184 12.0971 29.9534 12.0971 29.9534ZM46.9084 47.4987L44.9581 45.964C44.18 46.4275 43.6079 47.1635 43.3858 48.0261C42.2127 48.1904 39.0141 47.4802 39.3251 47.009C42.8307 42.0784 40.1492 39.1428 36.9268 39.3061V42.6176C36.9268 43.681 35.9987 44.5427 34.8554 44.5427H32.6303C31.034 44.5427 29.9948 46.1473 29.9948 46.1473C29.9948 46.1473 28.9558 44.5427 27.3595 44.5427H25.1342C23.9902 44.5427 23.064 43.681 23.064 42.6176V39.3062C19.8415 39.143 17.158 42.0786 20.6646 47.0091C20.9727 47.4754 17.6851 48.2221 16.143 48.0332C15.7369 47.6121 15.1507 47.3465 14.4946 47.3465C14.2157 47.3466 13.939 47.3962 13.6774 47.4931C13.6774 47.4931 7.61764 41.7559 7.50663 41.6997L7.55664 41.5836C7.90162 40.9383 7.37362 40.2349 7.03964 40.2842C7.42758 39.8189 7.44572 37.7814 5.29331 37.3102C5.35629 37.7195 5.38825 38.5548 5.38825 38.5548C5.38825 38.5548 3.72708 37.6565 2.89292 38.4316C2.15991 39.2994 3.17709 40.8734 3.17709 40.8734C3.17709 40.8734 2.32695 40.8941 1.9079 40.8586C2.52407 42.9422 4.59037 42.7946 5.03744 42.3835C5.0083 42.715 5.7556 43.1872 6.38859 42.8084L6.66665 42.6737C6.71571 42.7395 12.6176 48.3155 12.6176 48.3155C12.3465 48.7179 12.2175 49.2117 12.3065 49.7381C12.4465 50.5606 13.1318 51.2422 14.0069 51.4192C14.6249 51.5433 15.206 51.4232 15.672 51.1507L17.2343 52.6008C17.3734 52.7268 17.5614 52.8054 17.7713 52.7907C18.1534 52.765 18.4395 52.4551 18.4105 52.1001C18.3985 51.9397 18.3165 51.8021 18.2034 51.6978C18.1784 51.6701 16.6122 50.2161 16.6122 50.2161C17.9042 49.31 20.3117 48.6717 22.3099 48.6717C22.661 48.6717 22.826 48.3747 22.705 48.0833C21.7998 45.9062 23.7462 44.3294 25.7594 45.6131C26.6377 46.1729 27.5298 47.2757 28.2019 49.1153C24.8984 49.9152 20.7508 52.1186 19.9117 54.5241C19.5886 55.4528 20.6558 56.7188 21.952 56.9737C21.9749 56.9788 21.9989 56.9744 22.0187 56.9617C22.0384 56.9489 22.0522 56.9287 22.057 56.9057C22.7341 53.3149 26.5957 50.639 28.605 50.1846C28.7061 50.4551 28.673 50.3676 28.774 50.6371C26.5857 51.672 24.4634 53.855 23.8573 56.45C23.5792 57.6385 24.9044 58.7098 25.9986 59.0031C26.0536 59.0177 26.1076 58.9794 26.1106 58.9263C26.3187 55.6444 27.7678 52.8574 29.066 51.5894C29.1015 51.8372 29.1283 52.0863 29.1461 52.336C29.1461 52.336 27.8169 56.0399 27.8169 58.7423C27.8169 59.9995 29.6852 60.877 29.9612 61C30.3062 60.877 32.1735 59.9995 32.1735 58.7423C32.1735 56.0398 30.8444 52.336 30.8444 52.336C30.8625 52.0863 30.8895 51.8372 30.9254 51.5894C32.2226 52.8574 33.6727 55.6434 33.8798 58.9251C33.8828 58.9783 33.9378 59.0177 33.9917 59.003C35.087 58.7099 36.4112 57.6386 36.1341 56.4502C35.5269 53.8551 33.4057 51.6722 31.2173 50.6373C31.3173 50.3677 31.2843 50.4552 31.3853 50.1846C33.3957 50.6391 37.2563 53.3148 37.9334 56.9056C37.9383 56.9286 37.9521 56.9487 37.9718 56.9614C37.9915 56.9742 38.0155 56.9786 38.0385 56.9736C39.3336 56.7189 40.4028 55.4527 40.0777 54.5242C39.2406 52.1187 35.0919 49.9153 31.7885 49.1154C32.4615 47.2758 33.3536 46.173 34.2318 45.6132C36.2441 44.3295 38.1904 45.9065 37.2853 48.0836C37.1642 48.3747 37.3282 48.6717 37.6803 48.6717C39.9406 48.6717 42.7249 49.4883 43.827 50.5832C44.5312 51.6398 45.8324 52.3156 47.3007 52.1709C48.9689 52.0077 50.3292 50.7543 50.5172 49.205C50.6812 47.8473 49.9791 46.6284 48.8599 45.9644L46.9084 47.4987ZM32.5332 37.609C33.2283 37.3514 34.3175 37.5599 34.2804 38.5632C34.2715 38.7904 34.5906 38.7904 34.6136 38.5583C34.8216 37.0561 33.8064 36.6232 32.7443 36.7993C32.6123 36.2828 32.5043 35.8313 32.3813 35.3837C32.2833 35.0218 32.2472 34.3419 32.6664 34.3419C32.8924 34.3419 32.8015 34.9745 32.7805 35.2469C32.7614 35.486 32.8474 35.6306 33.0415 35.6375C33.1626 35.6424 33.3137 35.488 33.4036 35.3856C34.0118 34.698 34.1528 33.6336 33.4407 33.1202C32.8447 32.6892 31.3524 33.0099 30.9421 33.6237C30.8803 33.3925 30.5842 33.0109 30.4421 32.8445C30.3042 32.6823 30.2682 32.5711 30.4592 32.4285C30.5492 32.3596 30.8213 32.0892 30.8213 31.8097C30.8213 31.6445 30.6932 31.3394 30.2862 31.3394C29.9651 31.3394 29.6081 31.5618 29.6081 32.0576C29.6081 32.1679 29.6351 32.286 29.706 32.4129C29.503 32.3794 28.952 32.3932 28.6689 32.463L32.5825 43.2027C33.7027 42.6498 34.5238 41.7743 34.5238 40.8348C34.5238 40.034 33.3445 40.2996 32.7715 40.9243C32.5874 39.9091 32.4234 38.9716 32.2444 38.0369C32.1955 37.7792 32.3262 37.6867 32.5332 37.609ZM26.9994 30.3136L27.8215 32.5978C27.1175 32.7651 25.9853 33.2786 25.9853 33.9583C25.9853 34.8635 27.5865 35.4527 28.5127 35.3818C28.4666 35.5884 28.5198 35.7724 28.6638 35.9405C28.3277 35.9405 27.6937 36.097 27.4856 36.3213C26.9945 35.8638 26.2263 35.6976 25.8612 35.976C25.4943 36.2564 25.4834 36.7316 25.8663 37.2687C26.1333 37.6405 26.2334 38.0075 25.9333 38.4383C27.0495 38.4383 26.6383 36.9873 27.0754 36.9873C27.0185 37.2687 27.0534 37.5943 27.1805 37.9553C27.2646 38.1953 27.2646 38.3656 27.1206 38.5967C26.7605 39.1723 26.2005 40.4944 26.2764 41.6897C25.9104 41.6876 25.7244 41.598 25.8534 41.0984C25.9014 40.9123 25.7864 40.7796 25.6344 41.0088C25.4664 41.2617 25.3853 41.6935 25.3853 41.8783C25.3853 42.9429 26.6534 43.1573 27.1375 42.9321C28.5378 44.2871 31.2882 43.9257 32.2093 43.4712L27.3667 30.1835C27.2676 29.9327 26.9124 30.0529 26.9994 30.3136ZM26.8313 41.2588C26.7313 40.7117 27.4924 39.7339 28.4606 38.7905C28.2546 39.4053 28.3826 40.4649 28.7866 40.8299C28.0844 40.8299 27.2503 40.9617 26.8313 41.2588Z" fill="#114FD3"/>
</svg>
