<svg width="16" height="16" viewBox="0 0 16 16" fill="none" xmlns="http://www.w3.org/2000/svg">
<path d="M2 3.99996V11.2C2 11.9467 2 12.3198 2.14532 12.605C2.27316 12.8559 2.47698 13.0603 2.72786 13.1881C3.0128 13.3333 3.386 13.3333 4.13127 13.3333H11.8687C12.614 13.3333 12.9867 13.3333 13.2716 13.1881C13.5225 13.0603 13.727 12.856 13.8548 12.6051C14.0001 12.3199 14.0001 11.9466 14.0001 11.1998L14.0001 6.13314C14.0001 5.38641 14.0001 5.01304 13.8548 4.72782C13.727 4.47694 13.5226 4.27312 13.2717 4.14528C12.9865 3.99996 12.6134 3.99996 11.8667 3.99996H9M2 3.99996H9M2 3.99996C2 3.26358 2.59695 2.66663 3.33333 2.66663H6.78301C7.10913 2.66663 7.27258 2.66663 7.42603 2.70347C7.56207 2.73613 7.6919 2.79014 7.8112 2.86324C7.94571 2.94567 8.06121 3.06117 8.29167 3.29163L9 3.99996" stroke="#114FD3" stroke-width="1.2" stroke-linecap="round" stroke-linejoin="round"/>
</svg>
