<svg width="16" height="16" viewBox="0 0 16 16" fill="none" xmlns="http://www.w3.org/2000/svg">
<path d="M6.33333 3.66667V5.67189C6.33333 5.73319 6.30273 5.79045 6.25177 5.82452L2.47814 8.34704C2.17937 8.54676 2 8.88243 2 9.2418C2 9.95625 2.68334 10.4724 3.37056 10.277L6.44444 9.40317C6.55587 9.3715 6.66667 9.45519 6.66667 9.57103V10.9605C6.66667 11.1238 6.66667 11.2054 6.6422 11.2807C6.6341 11.3056 6.62406 11.3299 6.61217 11.3532C6.57622 11.4238 6.5185 11.4815 6.40306 11.5969L5.55338 12.4466C5.48098 12.519 5.44478 12.5552 5.41732 12.5964C5.38108 12.6508 5.35585 12.7117 5.34304 12.7757C5.33333 12.8243 5.33333 12.8755 5.33333 12.9779C5.33333 13.3715 5.33333 13.5683 5.40321 13.6862C5.4954 13.8417 5.66436 13.9353 5.8451 13.9311C5.98212 13.9278 6.149 13.8235 6.48278 13.6149L7.523 12.9648C7.72857 12.8363 7.83135 12.7721 7.94426 12.7594C7.9813 12.7553 8.0187 12.7553 8.05574 12.7594C8.16865 12.7721 8.27143 12.8363 8.477 12.9648L9.51722 13.6149C9.851 13.8235 10.0179 13.9278 10.1549 13.9311C10.3356 13.9353 10.5046 13.8417 10.5968 13.6862C10.6667 13.5683 10.6667 13.3715 10.6667 12.9779C10.6667 12.8755 10.6667 12.8243 10.657 12.7757C10.6442 12.7117 10.6189 12.6508 10.5827 12.5964C10.5552 12.5552 10.519 12.519 10.4466 12.4466L9.59694 11.5969C9.4815 11.4815 9.42378 11.4238 9.38783 11.3532C9.37594 11.3299 9.3659 11.3056 9.35781 11.2807C9.33333 11.2054 9.33333 11.1238 9.33333 10.9605V9.57103C9.33333 9.45519 9.44413 9.3715 9.55556 9.40317L12.6294 10.277C13.3167 10.4724 14 9.95625 14 9.2418C14 8.88243 13.8206 8.54676 13.5219 8.34704L9.74823 5.82452C9.69727 5.79045 9.66667 5.73319 9.66667 5.67189V3.66667C9.66667 2.74619 8.92048 2 8 2C7.07953 2 6.33333 2.74619 6.33333 3.66667Z" stroke="#114FD3" stroke-width="1.2" stroke-linejoin="round"/>
</svg>
