<svg width="16" height="16" viewBox="0 0 16 16" fill="none" xmlns="http://www.w3.org/2000/svg">
<path d="M4.83913 4.42271V8.11356M4.83913 4.42271C5.4977 4.42271 6.03156 3.88037 6.03156 3.21136C6.03156 2.54234 5.4977 2 4.83913 2C4.18057 2 3.64671 2.54234 3.64671 3.21136C3.64671 3.88037 4.18057 4.42271 4.83913 4.42271ZM9.0221 12.7886H5.63409C5.19505 12.7886 4.83913 12.4327 4.83913 11.9937V8.11356M9.0221 12.7886C9.0221 13.4577 9.55597 14 10.2145 14C10.8731 14 11.407 13.4577 11.407 12.7886C11.407 12.1196 10.8731 11.5773 10.2145 11.5773C9.55597 11.5773 9.0221 12.1196 9.0221 12.7886ZM4.83913 8.11356H9.0221M9.0221 8.11356C9.0221 8.78258 9.55597 9.32492 10.2145 9.32492C10.8731 9.32492 11.407 8.78258 11.407 8.11356C11.407 7.44455 10.8731 6.90221 10.2145 6.90221C9.55597 6.90221 9.0221 7.44455 9.0221 8.11356Z" stroke="#114FD3" stroke-width="1.2"/>
</svg>
