<svg width="16" height="16" viewBox="0 0 16 16" fill="none" xmlns="http://www.w3.org/2000/svg">
<path fill-rule="evenodd" clip-rule="evenodd" d="M11.46 7.00001C11.46 9.46409 9.46959 11.45 6.99992 11.45C4.53418 11.45 2.554 9.46801 2.554 7.00001C2.554 4.52924 4.53694 2.54003 6.99992 2.54003C9.46682 2.54003 11.46 4.53316 11.46 7.00001ZM10.5535 11.4021C9.58253 12.1833 8.3467 12.65 6.99992 12.65C3.87031 12.65 1.354 10.1296 1.354 7.00001C1.354 3.87039 3.87031 1.34003 6.99992 1.34003C10.1295 1.34003 12.66 3.87039 12.66 7.00001C12.66 8.34936 12.1896 9.58546 11.4036 10.5551L13.4243 12.5757C13.6587 12.81 13.6587 13.1899 13.4244 13.4242C13.1901 13.6586 12.8102 13.6586 12.5758 13.4243L10.5535 11.4021Z" fill="#114FD3"/>
</svg>
