<svg width="16" height="16" viewBox="0 0 16 16" fill="none" xmlns="http://www.w3.org/2000/svg">
<path d="M12.1053 6.01251V9.1045C12.1053 9.78579 12.1053 10.1264 11.9733 10.4199C11.93 10.5163 11.8765 10.6079 11.8139 10.6931C11.6234 10.9523 11.3268 11.1199 10.7337 11.4551L9.33222 12.2471C8.75534 12.5731 8.4669 12.7361 8.1547 12.768C8.05202 12.7785 7.94853 12.7784 7.84588 12.7677C7.53376 12.735 7.24572 12.5713 6.66965 12.2438L5.26057 11.443C4.66986 11.1072 4.3745 10.9393 4.1848 10.6804C4.12244 10.5953 4.06924 10.5039 4.02607 10.4077C3.89474 10.1148 3.89474 9.77507 3.89474 9.09561V6.01251M14 5.09522L9.17182 2.78152C8.66106 2.53675 8.40567 2.41437 8.13467 2.39045C8.04525 2.38256 7.9553 2.38271 7.8659 2.3909C7.59498 2.41573 7.34001 2.53897 6.83006 2.78544L2 5.11997L6.82661 7.43675C7.33803 7.68223 7.59374 7.80498 7.86514 7.82896C7.95469 7.83688 8.04477 7.83673 8.1343 7.82851C8.40561 7.80362 8.66091 7.68002 9.17151 7.43282L14 5.09522ZM14 5.09522V10.823C14 11.4177 14 11.7151 13.8958 11.9799C13.8615 12.0671 13.819 12.151 13.769 12.2304C13.6173 12.4711 13.3776 12.6471 12.8983 12.9991L12.5 13.2916" stroke="#114FD3" stroke-width="1.2" stroke-linecap="round" stroke-linejoin="round"/>
</svg>
