<svg width="16" height="16" viewBox="0 0 16 16" fill="none" xmlns="http://www.w3.org/2000/svg">
<path d="M14 13.3332C14 12.1722 12.8869 11.196 11.3333 10.8299M10 13.3333C10 11.8605 8.20914 10.6799 6 10.6799C3.79086 10.6799 2 11.8605 2 13.3333M10 8.65995C11.4728 8.65995 12.6667 7.47272 12.6667 5.99996C12.6667 4.5272 11.4728 3.31995 10 3.31995M6 8.66662C4.52724 8.66662 3.33333 7.47272 3.33333 5.99996C3.33333 4.5272 4.52724 3.33329 6 3.33329C7.47276 3.33329 8.66667 4.5272 8.66667 5.99996C8.66667 7.47272 7.47276 8.66662 6 8.66662Z" stroke="#114FD3" stroke-width="1.2" stroke-linecap="round" stroke-linejoin="round"/>
</svg>
