<svg width="16" height="16" viewBox="0 0 16 16" fill="none" xmlns="http://www.w3.org/2000/svg">
<path d="M10.5833 13.3333V14.0833H12.0833V13.3333H10.5833ZM3.91667 13.3333V14.0833H5.41667V13.3333H3.91667ZM13.25 11.3336V12.0836H14.75V11.3336H13.25ZM12.1902 8.77449C11.7895 8.66946 11.3796 8.90912 11.2745 9.30979C11.1695 9.71047 11.4091 10.1204 11.8098 10.2255L12.1902 8.77449ZM1.25 11.3336V12.0836H2.75V11.3336H1.25ZM4.19019 10.2255C4.59086 10.1204 4.83052 9.71047 4.72549 9.30979C4.62045 8.90912 4.21049 8.66946 3.80981 8.77449L4.19019 10.2255ZM11.4998 6.2652C11.1912 6.54144 11.1649 7.01559 11.4411 7.32424C11.7174 7.63288 12.1915 7.65915 12.5002 7.3829L11.4998 6.2652ZM8.83315 3.28372C8.5245 3.55997 8.49824 4.03412 8.77448 4.34276C9.05073 4.65141 9.52487 4.67767 9.83352 4.40143L8.83315 3.28372ZM3.49981 7.3829C3.80846 7.65915 4.28261 7.63288 4.55885 7.32424C4.8351 7.01559 4.80883 6.54144 4.50019 6.2652L3.49981 7.3829ZM6.16648 4.40143C6.47513 4.67767 6.94927 4.65141 7.22552 4.34276C7.50176 4.03412 7.4755 3.55997 7.16685 3.28372L6.16648 4.40143ZM12.0833 13.3333C12.0833 12.4141 11.4663 11.71 10.7429 11.276C10.0046 10.833 9.03303 10.5833 8 10.5833V12.0833C8.80791 12.0833 9.50303 12.2813 9.97115 12.5622C10.4542 12.852 10.5833 13.148 10.5833 13.3333H12.0833ZM8 10.5833C6.96697 10.5833 5.99541 10.833 5.25711 11.276C4.53373 11.71 3.91667 12.4141 3.91667 13.3333H5.41667C5.41667 13.148 5.5458 12.852 6.02885 12.5622C6.49697 12.2813 7.19209 12.0833 8 12.0833V10.5833ZM14.75 11.3336C14.75 10.6545 14.4067 10.0843 13.943 9.66729C13.4813 9.25211 12.8654 8.95151 12.1902 8.77449L11.8098 10.2255C12.3118 10.3571 12.696 10.5632 12.94 10.7826C13.1819 11.0002 13.25 11.1925 13.25 11.3336H14.75ZM2.75 11.3336C2.75 11.1925 2.81806 11.0002 3.06002 10.7826C3.30403 10.5632 3.68816 10.3571 4.19019 10.2255L3.80981 8.77449C3.13457 8.95151 2.5187 9.25211 2.05702 9.66729C1.5933 10.0843 1.25 10.6545 1.25 11.3336H2.75ZM8 8.58331C7.30964 8.58331 6.75 8.02367 6.75 7.33331H5.25C5.25 8.8521 6.48122 10.0833 8 10.0833V8.58331ZM6.75 7.33331C6.75 6.64296 7.30964 6.08331 8 6.08331V4.58331C6.48122 4.58331 5.25 5.81453 5.25 7.33331H6.75ZM8 6.08331C8.69036 6.08331 9.25 6.64296 9.25 7.33331H10.75C10.75 5.81453 9.51878 4.58331 8 4.58331V6.08331ZM9.25 7.33331C9.25 8.02367 8.69036 8.58331 8 8.58331V10.0833C9.51878 10.0833 10.75 8.8521 10.75 7.33331H9.25ZM12.5002 7.3829C13.0616 6.88043 13.4167 6.14784 13.4167 5.33331H11.9167C11.9167 5.70345 11.7567 6.03524 11.4998 6.2652L12.5002 7.3829ZM13.4167 5.33331C13.4167 3.81453 12.1855 2.58331 10.6667 2.58331V4.08331C11.357 4.08331 11.9167 4.64296 11.9167 5.33331H13.4167ZM10.6667 2.58331C9.96282 2.58331 9.31918 2.84872 8.83315 3.28372L9.83352 4.40143C10.0552 4.20305 10.346 4.08331 10.6667 4.08331V2.58331ZM4.50019 6.2652C4.24326 6.03524 4.08333 5.70345 4.08333 5.33331H2.58333C2.58333 6.14784 2.93841 6.88043 3.49981 7.3829L4.50019 6.2652ZM4.08333 5.33331C4.08333 4.64296 4.64298 4.08331 5.33333 4.08331V2.58331C3.81455 2.58331 2.58333 3.81453 2.58333 5.33331H4.08333ZM5.33333 4.08331C5.65396 4.08331 5.94484 4.20305 6.16648 4.40143L7.16685 3.28372C6.68082 2.84872 6.03718 2.58331 5.33333 2.58331V4.08331Z" fill="#114FD3"/>
</svg>
