<svg width="24" height="24" viewBox="0 0 24 24" fill="none" xmlns="http://www.w3.org/2000/svg">
<path d="M5.25 16.4999C5.24999 16.9141 5.58576 17.2499 5.99997 17.25C6.41419 17.25 6.74999 16.9142 6.75 16.5L5.25 16.4999ZM11.25 16.5C11.25 16.9142 11.5858 17.25 12 17.25C12.4142 17.25 12.75 16.9142 12.75 16.5H11.25ZM18 13.75H18.75V12.25H18V13.75ZM13.5 12.25H12.75V13.75H13.5V12.25ZM18 11.25H18.75V9.75H18V11.25ZM15.5 9.75H14.75V11.25H15.5V9.75ZM18 16.25H18.75V14.75H18V16.25ZM16.5 14.75H15.75V16.25H16.5V14.75ZM18 8.75H18.75V7.25H18V8.75ZM14 7.25H13.25V8.75H14V7.25ZM9 11.25C8.30964 11.25 7.75 10.6904 7.75 10H6.25C6.25 11.5188 7.48122 12.75 9 12.75V11.25ZM7.75 10C7.75 9.30964 8.30964 8.75 9 8.75V7.25C7.48122 7.25 6.25 8.48122 6.25 10H7.75ZM9 8.75C9.69036 8.75 10.25 9.30964 10.25 10H11.75C11.75 8.48122 10.5188 7.25 9 7.25V8.75ZM10.25 10C10.25 10.6904 9.69036 11.25 9 11.25V12.75C10.5188 12.75 11.75 11.5188 11.75 10H10.25ZM12.75 16.5C12.75 15.666 12.2641 14.8532 11.6221 14.2775C10.9628 13.6861 10.0399 13.25 9 13.25V14.75C9.61695 14.75 10.194 15.0116 10.6205 15.3941C11.0644 15.7922 11.25 16.2294 11.25 16.5H12.75ZM9 13.25C7.96011 13.25 7.03722 13.6861 6.37794 14.2774C5.73597 14.8532 5.25003 15.6659 5.25 16.4999L6.75 16.5C6.75001 16.2294 6.93565 15.7922 7.37947 15.3941C7.80597 15.0116 8.38306 14.75 9 14.75V13.25ZM18 12.25H13.5V13.75H18V12.25ZM18 14.75H16.5V16.25H18V14.75ZM18 7.25H14V8.75H18V7.25ZM18 9.75H16.5V11.25H18V9.75ZM16.5 9.75H15.5V11.25H16.5V9.75Z" fill="#0625C4"/>
<path d="M6.19691 20C6.12926 20 6.26057 20 6.19691 20ZM6.19691 20C5.20864 19.9993 4.49334 19.9868 4.0918 19.7822C3.71547 19.5905 3.40973 19.2837 3.21799 18.9074C3 18.4796 3 17.8591 3 16.739V7.35536C3 6.23526 3 5.51962 3.21799 5.0918C3.40973 4.71547 3.71547 4.40973 4.0918 4.21799C4.51962 4 5.46661 4 6.58671 4H17.8002C18.9203 4 19.4796 4 19.9074 4.21799C20.2837 4.40973 20.5905 4.71547 20.7822 5.0918C21 5.5192 21 6.30678 21 7.42469V16.6519C21 17.7698 21 18.48 20.7822 18.9074C20.5905 19.2837 20.2837 19.5905 19.9074 19.7822C19.48 20 18.811 20 17.6931 20H12H6.19691Z" stroke="#0625C4" stroke-width="1.5" stroke-linecap="round" stroke-linejoin="round"/>
</svg>
