<svg width="120" height="120" viewBox="0 0 120 120" fill="none" xmlns="http://www.w3.org/2000/svg">
<path d="M60 39V62.2485M36.6587 19.6875L19.6875 36.6587L19.6721 36.6731C17.9528 38.3924 17.0912 39.254 16.4746 40.2602C15.9263 41.1549 15.5213 42.1315 15.2763 43.1519C15 44.3027 15 45.5253 15 47.9712V72.0288C15 74.4747 15 75.6976 15.2763 76.8485C15.5213 77.8689 15.9263 78.844 16.4746 79.7388C17.0928 80.7476 17.9591 81.6139 19.6875 83.3423L36.6587 100.313C38.3882 102.043 39.251 102.906 40.2602 103.524C41.1549 104.073 42.1291 104.479 43.1494 104.724C44.2985 105 45.5191 105 47.9576 105H72.0375C74.476 105 75.7018 105 76.8509 104.724C77.8713 104.479 78.8465 104.073 79.7412 103.524C80.7504 102.906 81.6152 102.043 83.3447 100.313L100.316 83.3423C102.045 81.6128 102.908 80.7479 103.527 79.7388C104.075 78.844 104.477 77.8688 104.722 76.8485C104.998 75.6976 105 74.4748 105 72.0289V47.9712C105 45.5253 104.998 44.3027 104.722 43.1519C104.477 42.1315 104.075 41.155 103.527 40.2602C102.908 39.2511 102.045 38.388 100.316 36.6586L83.3447 19.6875C81.6163 17.9591 80.7501 17.0928 79.7412 16.4746C78.8465 15.9263 77.8713 15.5213 76.8509 15.2763C75.7001 15 74.4723 15 72.0264 15H47.9688C45.5228 15 44.3003 15 43.1494 15.2763C42.1291 15.5213 41.1549 15.9263 40.2602 16.4746C39.2602 17.0874 38.4053 17.9423 36.707 19.6407L36.6587 19.6875ZM60.249 77.2485V77.7485L59.751 77.7495V77.2485H60.249Z" stroke="#FBD1D9" stroke-width="8" stroke-linecap="round" stroke-linejoin="round"/>
</svg>
